<svg width="30" height="30" viewBox="0 0 30 30" fill="none" xmlns="http://www.w3.org/2000/svg">
<g id="Frame 2432">
<path id="Vector" d="M29.1313 15.1083L29.1311 15.2143C25.4573 15.208 21.9946 15.5554 19.3793 16.1867L19.3441 16.1867C17.7538 16.5726 16.5151 17.807 16.1238 19.396L16.1238 19.4312C15.448 22.0443 15.089 25.5056 15.1179 29.1797L14.9412 29.1794C14.9475 25.5055 14.6001 22.0428 13.9688 19.4275L13.9689 19.3923C13.583 17.802 12.3134 16.5632 10.7596 16.172L10.7244 16.1719C8.1113 15.4962 4.64998 15.1371 0.97597 15.166L0.976091 15.0953L0.975905 15.0601L0.976026 14.9894C4.64985 14.9957 8.11257 14.6482 10.7278 14.0169L10.7631 14.017C12.3534 13.5959 13.5921 12.3615 13.9833 10.8077L13.9834 10.7725C14.6591 8.15937 15.0181 4.69801 14.9892 1.02397L15.1659 1.02428C15.1596 4.69813 15.5071 8.16088 16.1384 10.7761L16.1383 10.8114C16.5242 12.4017 17.7586 13.6404 19.3475 14.0317L19.3828 14.0318C21.9959 14.7075 25.4572 15.0665 29.1312 15.0376L29.1313 15.1083Z" fill="#7A40ED"/>
</g>
</svg>
