<svg width="40" height="40" viewBox="0 0 40 40" fill="none" xmlns="http://www.w3.org/2000/svg">
<circle opacity="0.12" cx="20" cy="20" r="20" fill="white"/>
<circle opacity="0.25" cx="19.9997" cy="20.0007" r="14.8718" fill="white"/>
<path d="M26.9999 19.3208H23.9287C23.8961 16.5025 23.0187 14.1078 21.7836 13.114C24.6923 13.7005 26.9186 16.2419 26.9998 19.3208H26.9999ZM20.3212 19.3208H17.4287C17.4775 15.9975 18.7613 13.2118 20.305 13V19.3208H20.3212ZM20.3212 19.6792V26C18.7775 25.7882 17.4937 23.0025 17.4449 19.6792H20.3212ZM20.6787 19.6792H23.5549C23.5062 23.0025 22.2224 25.7882 20.6787 26V19.6792ZM20.6787 19.3208V13C22.2224 13.2118 23.5062 15.9975 23.5549 19.3208H20.6787ZM19.2163 13.114C17.9813 14.1078 17.1038 16.5025 17.0712 19.3208H14C14.0813 16.2419 16.3075 13.7005 19.2162 13.114H19.2163ZM14.0001 19.6792H17.0713C17.1038 22.4975 17.9812 24.8922 19.2163 25.886C16.3076 25.2995 14.0814 22.7581 14.0001 19.6792H14.0001ZM21.7837 25.886C23.0187 24.8922 23.8962 22.4975 23.9288 19.6792H27C26.9187 22.7581 24.6925 25.2995 21.7838 25.886H21.7837Z" fill="white"/>
</svg>
