<svg width="40" height="40" viewBox="0 0 40 40" fill="none" xmlns="http://www.w3.org/2000/svg">
<circle opacity="0.12" cx="20" cy="20" r="20" fill="white"/>
<circle opacity="0.25" cx="19.9997" cy="20.0007" r="14.8718" fill="white"/>
<path d="M27 15.1554C27 14.0104 25.9896 13 24.8446 13H16.1554C15.0104 13 14 14.0104 14 15.1554V23.8446C14 24.9896 15.0104 26 16.1554 26H20.5337V21.0829H18.9171V18.9275H20.5337V18.0518C20.5337 16.5699 21.6114 15.2902 22.9586 15.2902H24.7098V17.4456H22.9586C22.7565 17.4456 22.5544 17.6477 22.5544 18.0518V18.9275H24.7098V21.0829H22.5544V26H24.8446C25.9896 26 27 24.9896 27 23.8446V15.1554Z" fill="white"/>
</svg>
