<svg width="40" height="40" viewBox="0 0 40 40" fill="none" xmlns="http://www.w3.org/2000/svg">
<circle opacity="0.12" cx="20" cy="20" r="20" fill="white"/>
<circle opacity="0.25" cx="19.9997" cy="20.0007" r="14.8718" fill="white"/>
<path d="M25.15 13H15.85C14.8 13 14 13.8 14 14.85V24.15C14 25.2 14.8 26 15.85 26H25.15C26.2 26 27 25.2 27 24.15V14.85C27 13.8 26.2 13 25.15 13ZM20.5 23.4C22.65 23.4 24.4 21.7 24.4 19.65C24.4 19.3 24.35 18.9 24.25 18.6H25.35V23.9C25.35 24.15 25.15 24.4 24.85 24.4H16.15C15.9 24.4 15.65 24.2 15.65 23.9V18.55H16.8C16.7 18.9 16.65 19.25 16.65 19.6C16.6 21.7 18.35 23.4 20.5 23.4ZM20.5 21.9C19.1 21.9 18 20.8 18 19.45C18 18.1 19.1 17 20.5 17C21.9 17 23 18.1 23 19.45C23 20.85 21.9 21.9 20.5 21.9ZM25.3 16.55C25.3 16.85 25.05 17.1 24.75 17.1H23.35C23.05 17.1 22.8 16.85 22.8 16.55V15.2C22.8 14.9 23.05 14.65 23.35 14.65H24.75C25.05 14.65 25.3 14.9 25.3 15.2V16.55Z" fill="white"/>
</svg>
