<svg width="40" height="40" viewBox="0 0 40 40" fill="none" xmlns="http://www.w3.org/2000/svg">
<circle opacity="0.12" cx="20" cy="20" r="20" fill="white"/>
<circle opacity="0.25" cx="19.9997" cy="20.0007" r="14.8718" fill="white"/>
<path d="M11.2806 20.7199L14.959 22.0957L16.393 26.7236C16.4554 27.0363 16.8294 27.0988 17.0788 26.9112L19.1363 25.2227C19.3233 25.0351 19.635 25.0351 19.8844 25.2227L23.5629 27.9118C23.8123 28.0995 24.1864 27.9744 24.2487 27.6617L26.992 14.5285C27.0543 14.2159 26.7426 13.9032 26.4309 14.0282L11.2806 19.9069C10.9065 20.032 10.9065 20.5948 11.2806 20.7199ZM16.206 21.4078L23.4382 16.9676C23.5629 16.905 23.6876 17.0926 23.5629 17.1552L17.6399 22.7211C17.4529 22.9087 17.2659 23.1589 17.2659 23.4716L17.0788 24.9725C17.0788 25.1601 16.7671 25.2227 16.7047 24.9725L15.9566 22.2208C15.7695 21.9081 15.8942 21.5329 16.206 21.4078Z" fill="white"/>
</svg>
