<svg width="40" height="40" viewBox="0 0 40 40" fill="none" xmlns="http://www.w3.org/2000/svg">
<g id="Group 5813">
<circle id="Ellipse 3" opacity="0.12" cx="20" cy="20" r="20" fill="white"/>
<circle id="Ellipse 2" opacity="0.25" cx="19.9997" cy="20.0007" r="14.8718" fill="white"/>
<path id="Vector" d="M28 18.2222C28 17.8889 27.9453 17.5 27.9453 17.0556C27.8905 16.6111 27.8358 16.1667 27.781 15.7778C27.6715 15.3333 27.5073 15 27.1788 14.7222C26.9051 14.4444 26.5219 14.2778 26.1387 14.2222C24.8796 14.0556 23.0183 14 20.5 14C17.9818 14 16.0657 14.0556 14.8613 14.2222C14.4781 14.2778 14.0949 14.4444 13.8212 14.7222C13.5474 15 13.3285 15.3333 13.219 15.7778C13.1095 16.1667 13.0547 16.5556 13.0547 17.0556C13 17.5 13 17.8889 13 18.2222C13 18.5556 13 18.9444 13 19.5C13 20.0556 13 20.5 13 20.7778C13 21.1111 13.0547 21.5 13.0547 21.9444C13.1095 22.3889 13.1642 22.8333 13.219 23.2222C13.3285 23.6667 13.4927 24 13.8212 24.2778C14.0949 24.5556 14.4781 24.7222 14.8613 24.7778C16.1204 24.9444 17.9818 25 20.5 25C23.0183 25 24.9343 24.9444 26.1387 24.7778C26.5219 24.7222 26.9051 24.5556 27.1788 24.2778C27.4526 24 27.6715 23.6667 27.781 23.2222C27.8905 22.8333 27.9453 22.4444 27.9453 21.9444C28 21.5 28 21.1111 28 20.7778C28 20.4444 28 20.0556 28 19.5C28 18.9444 28 18.5 28 18.2222ZM23.4015 19.9444L19.0766 22.6667C19.0219 22.7222 18.9124 22.7778 18.8029 22.7778C18.6934 22.7778 18.6387 22.7778 18.5292 22.7222C18.365 22.6111 18.2555 22.4444 18.2555 22.2222V16.7222C18.2555 16.5 18.365 16.3333 18.5292 16.2222C18.6934 16.1111 18.9124 16.1111 19.0766 16.2222L23.4015 18.9444C23.5657 19.0556 23.6752 19.2222 23.6752 19.3889C23.6752 19.5556 23.5657 19.8333 23.4015 19.9444Z" fill="white"/>
</g>
</svg>
