<svg width="166" height="48" viewBox="0 0 166 48" fill="none" xmlns="http://www.w3.org/2000/svg">
<path d="M126.834 37.614C125.719 38.7287 124.348 39.286 122.72 39.286C121.092 39.286 119.721 38.7287 118.606 37.614C117.477 36.4847 116.912 35.1133 116.912 33.5C116.912 31.8867 117.477 30.5153 118.606 29.386C119.721 28.2713 121.092 27.714 122.72 27.714C124.348 27.714 125.719 28.2713 126.834 29.386C127.963 30.5153 128.528 31.8867 128.528 33.5C128.528 35.1133 127.963 36.4847 126.834 37.614ZM119.288 33.5C119.288 34.4973 119.618 35.326 120.278 35.986C120.938 36.646 121.752 36.976 122.72 36.976C123.688 36.976 124.502 36.646 125.162 35.986C125.822 35.326 126.152 34.4973 126.152 33.5C126.152 32.5027 125.822 31.674 125.162 31.014C124.502 30.354 123.688 30.024 122.72 30.024C121.752 30.024 120.938 30.354 120.278 31.014C119.618 31.674 119.288 32.5027 119.288 33.5Z" fill="#19171C"/>
<path d="M111.134 33.39L116.15 39H113.312L108.802 33.918V39H106.426V23.6H108.802V32.862L113.07 28H115.974L111.134 33.39Z" fill="#19171C"/>
<path d="M98.9842 27.714C100.26 27.714 101.28 28.1247 102.042 28.946C102.82 29.7527 103.208 30.8527 103.208 32.246V39H100.832V32.488C100.832 31.6667 100.612 31.036 100.172 30.596C99.7322 30.156 99.1309 29.936 98.3682 29.936C97.5029 29.936 96.8209 30.2073 96.3222 30.75C95.8236 31.278 95.5742 32.0627 95.5742 33.104V39H93.1982V28H95.5742V29.408C96.3076 28.2787 97.4442 27.714 98.9842 27.714Z" fill="#19171C"/>
<path d="M90.3592 34.512H81.6032C81.7792 35.3333 82.1752 35.9713 82.7912 36.426C83.4219 36.8807 84.1992 37.108 85.1232 37.108C86.3699 37.108 87.3159 36.6533 87.9612 35.744L89.9192 36.888C88.8485 38.4867 87.2425 39.286 85.1012 39.286C83.3265 39.286 81.8819 38.7433 80.7672 37.658C79.6672 36.558 79.1172 35.172 79.1172 33.5C79.1172 31.872 79.6599 30.5007 80.7452 29.386C81.8159 28.2713 83.2092 27.714 84.9252 27.714C86.5239 27.714 87.8439 28.2787 88.8852 29.408C89.9265 30.5373 90.4472 31.9087 90.4472 33.522C90.4472 33.8153 90.4179 34.1453 90.3592 34.512ZM81.5812 32.576H88.0492C87.8879 31.7107 87.5212 31.0433 86.9492 30.574C86.3919 30.1047 85.7099 29.87 84.9032 29.87C84.0232 29.87 83.2899 30.112 82.7032 30.596C82.1165 31.08 81.7425 31.74 81.5812 32.576Z" fill="#19171C"/>
<path d="M73.9281 29.562V28H76.3041V39H73.9281V37.416C73.0334 38.6627 71.7501 39.286 70.0781 39.286C68.5674 39.286 67.2768 38.7287 66.2061 37.614C65.1354 36.4993 64.6001 35.128 64.6001 33.5C64.6001 31.872 65.1354 30.5007 66.2061 29.386C67.2768 28.2713 68.5674 27.714 70.0781 27.714C71.7501 27.714 73.0334 28.33 73.9281 29.562ZM67.9661 36.03C68.6261 36.69 69.4548 37.02 70.4521 37.02C71.4494 37.02 72.2781 36.69 72.9381 36.03C73.5981 35.3553 73.9281 34.512 73.9281 33.5C73.9281 32.488 73.5981 31.652 72.9381 30.992C72.2781 30.3173 71.4494 29.98 70.4521 29.98C69.4548 29.98 68.6261 30.3173 67.9661 30.992C67.3061 31.652 66.9761 32.488 66.9761 33.5C66.9761 34.4973 67.3061 35.3407 67.9661 36.03Z" fill="#19171C"/>
<path d="M56.8288 31.036C56.8288 31.3733 57.0048 31.652 57.3568 31.872C57.7088 32.0773 58.2221 32.2753 58.8968 32.466C59.4101 32.5833 59.8574 32.708 60.2388 32.84C60.6201 32.972 61.0234 33.17 61.4487 33.434C61.8741 33.6833 62.1968 34.0207 62.4168 34.446C62.6514 34.8567 62.7614 35.3407 62.7467 35.898C62.7467 36.954 62.3361 37.7827 61.5148 38.384C60.6934 38.9853 59.6741 39.286 58.4567 39.286C57.3714 39.286 56.4401 39.0587 55.6628 38.604C54.8854 38.1493 54.3207 37.5187 53.9688 36.712L56.0148 35.524C56.3814 36.58 57.1954 37.108 58.4567 37.108C59.7034 37.108 60.3268 36.6973 60.3268 35.876C60.3268 35.2747 59.6301 34.8053 58.2368 34.468C57.7088 34.336 57.2614 34.204 56.8947 34.072C56.5427 33.94 56.1467 33.7493 55.7067 33.5C55.2814 33.2507 54.9514 32.9207 54.7168 32.51C54.4968 32.0993 54.3941 31.6227 54.4087 31.08C54.4087 30.068 54.7901 29.254 55.5527 28.638C56.3301 28.022 57.2907 27.714 58.4347 27.714C59.3441 27.714 60.1508 27.9193 60.8548 28.33C61.5734 28.726 62.1234 29.2833 62.5047 30.002L60.5028 31.124C60.1361 30.288 59.4467 29.87 58.4347 29.87C57.9654 29.87 57.5767 29.9727 57.2687 30.178C56.9754 30.3833 56.8288 30.6693 56.8288 31.036Z" fill="#19171C"/>
<path d="M46.694 31.036C46.694 31.3733 46.87 31.652 47.222 31.872C47.574 32.0773 48.0873 32.2753 48.762 32.466C49.2753 32.5833 49.7227 32.708 50.104 32.84C50.4853 32.972 50.8887 33.17 51.314 33.434C51.7393 33.6833 52.062 34.0207 52.282 34.446C52.5167 34.8567 52.6267 35.3407 52.612 35.898C52.612 36.954 52.2013 37.7827 51.38 38.384C50.5587 38.9853 49.5393 39.286 48.322 39.286C47.2366 39.286 46.3053 39.0587 45.528 38.604C44.7507 38.1493 44.186 37.5187 43.834 36.712L45.88 35.524C46.2467 36.58 47.0606 37.108 48.322 37.108C49.5686 37.108 50.192 36.6973 50.192 35.876C50.192 35.2747 49.4953 34.8053 48.102 34.468C47.574 34.336 47.1266 34.204 46.76 34.072C46.408 33.94 46.012 33.7493 45.572 33.5C45.1467 33.2507 44.8167 32.9207 44.582 32.51C44.362 32.0993 44.2593 31.6227 44.274 31.08C44.274 30.068 44.6553 29.254 45.418 28.638C46.1953 28.022 47.156 27.714 48.3 27.714C49.2093 27.714 50.016 27.9193 50.72 28.33C51.4387 28.726 51.9887 29.2833 52.37 30.002L50.368 31.124C50.0013 30.288 49.312 29.87 48.3 29.87C47.8307 29.87 47.442 29.9727 47.134 30.178C46.8407 30.3833 46.694 30.6693 46.694 31.036Z" fill="#19171C"/>
<path d="M38.4468 39V23.6H40.9768V39H38.4468Z" fill="#19171C"/>
<path d="M27.295 35.964C27.7497 35.964 28.1384 36.1253 28.461 36.448C28.7837 36.7707 28.945 37.1593 28.945 37.614C28.945 38.0687 28.7837 38.4573 28.461 38.78C28.1384 39.1027 27.7497 39.264 27.295 39.264C26.8404 39.264 26.4517 39.1027 26.129 38.78C25.8064 38.4573 25.645 38.0687 25.645 37.614C25.645 37.1593 25.799 36.7707 26.107 36.448C26.4297 36.1253 26.8257 35.964 27.295 35.964Z" fill="#19171C"/>
<path d="M21.6084 28V29.848C22.2098 28.484 23.3391 27.802 24.9964 27.802V30.376C24.1018 30.3173 23.3098 30.5373 22.6204 31.036C21.9458 31.52 21.6084 32.3267 21.6084 33.456V39H19.2324V28H21.6084Z" fill="#19171C"/>
<path d="M3 23.6H9.05C11.162 23.6 12.9147 24.3406 14.308 25.822C15.716 27.3033 16.42 29.1293 16.42 31.3C16.42 33.456 15.716 35.282 14.308 36.778C12.9147 38.2593 11.162 39 9.05 39H3V23.6ZM5.53 36.58H9.05C10.502 36.58 11.6827 36.0813 12.592 35.084C13.516 34.0866 13.978 32.8253 13.978 31.3C13.978 29.7746 13.516 28.5133 12.592 27.516C11.6827 26.5186 10.502 26.02 9.05 26.02H5.53V36.58Z" fill="#19171C"/>
<path d="M163.09 21.5208L163.09 21.6224C159.534 21.6163 156.182 21.9493 153.65 22.5543L153.616 22.5543C152.076 22.9241 150.877 24.1071 150.498 25.6299L150.498 25.6637C149.844 28.168 149.496 31.4852 149.524 35.0062L149.353 35.0059C149.359 31.4851 149.023 28.1665 148.412 25.6601L148.412 25.6264C148.038 24.1023 146.809 22.9151 145.305 22.5402L145.271 22.5401C142.741 21.8925 139.39 21.5484 135.834 21.5761L135.834 21.5084L135.834 21.4746L135.834 21.4068C139.39 21.4128 142.743 21.0799 145.274 20.4749L145.308 20.4749C146.848 20.0713 148.047 18.8883 148.426 17.3993L148.426 17.3655C149.08 14.8612 149.428 11.544 149.4 8.02298L149.571 8.02327C149.565 11.5441 149.901 14.8627 150.512 17.369L150.512 17.4028C150.886 18.9269 152.081 20.114 153.619 20.489L153.653 20.4891C156.183 21.1367 159.534 21.4807 163.09 21.453L163.09 21.5208Z" fill="#7A40ED"/>
</svg>
